<svg width="24" height="20" viewBox="0 0 24 20" fill="none" xmlns="http://www.w3.org/2000/svg">
<g clip-path="url(#clip0_8_691)">
<path d="M12.2084 19.9952C9.64167 19.9952 7.07972 20.0046 4.51302 19.9905C2.78453 19.9858 1.4633 19.2362 0.577743 17.7745C0.175217 17.114 0 16.3831 0 15.6101C0 11.8856 0 8.16105 0 4.43652C0 1.94882 1.92739 0.0233104 4.44672 0.00457066C6.33149 -0.00948415 8.22099 -0.000114277 10.1058 -0.000114277C13.397 -0.000114277 16.6882 -0.000114277 19.9795 -0.000114277C20.0884 -0.000114277 20.2021 -0.000114277 20.311 0.0139405C20.6188 0.0654749 20.8319 0.318461 20.8366 0.618298C20.8414 0.927503 20.6188 1.18518 20.3015 1.23671C20.1926 1.25545 20.0837 1.25076 19.97 1.25076C14.8319 1.25076 9.69376 1.25545 4.55564 1.25076C3.5517 1.25076 2.70403 1.57871 2.03631 2.3283C1.48698 2.94203 1.25493 3.66819 1.25493 4.48337C1.25493 7.42083 1.25493 10.3536 1.25493 13.2911C1.25493 14.0734 1.24546 14.8511 1.25967 15.6335C1.28808 17.0765 2.21626 18.2711 3.59905 18.6319C3.89266 18.7068 4.20521 18.7396 4.51302 18.7396C9.6985 18.7443 14.884 18.7443 20.0695 18.7443C20.955 18.7443 21.4665 18.2383 21.4712 17.367C21.4712 17.1655 21.4665 16.9594 21.4807 16.7579C21.5091 16.4346 21.7553 16.2098 22.0726 16.1957C22.371 16.1817 22.6835 16.3878 22.7072 16.683C22.7687 17.4325 22.7735 18.1821 22.3189 18.8521C21.8642 19.522 21.2297 19.8968 20.4199 19.9811C20.2968 19.9952 20.1689 19.9952 20.041 19.9952C17.4365 19.9952 14.8224 19.9952 12.2084 19.9952Z" fill="black"/>
<path d="M19.1555 14.9824C18.1753 14.9824 17.195 15.0152 16.2195 14.9777C13.8232 14.8793 12.1468 12.5977 12.7577 10.3021C13.2029 8.62959 14.6614 7.51926 16.4799 7.50521C18.3363 7.49115 20.1879 7.49584 22.0442 7.50521C23.1713 7.50989 23.9622 8.26885 23.9811 9.37918C24.0048 10.6301 24.0048 11.8763 23.9811 13.1271C23.9622 14.2421 23.1618 14.9871 22.0158 14.9964C21.0592 15.0011 20.1074 14.9964 19.1508 14.9964C19.1555 14.9917 19.1555 14.9871 19.1555 14.9824ZM19.1082 8.7514C18.2416 8.7514 17.3702 8.75609 16.5036 8.7514C15.6607 8.74672 14.955 9.04187 14.4389 9.70244C13.809 10.5083 13.7049 11.4031 14.15 12.3213C14.5999 13.2489 15.3813 13.7315 16.4183 13.7409C18.2747 13.7596 20.1263 13.7455 21.9827 13.7455C22.4941 13.7455 22.7309 13.5113 22.7309 13.0006C22.7309 11.8435 22.7309 10.691 22.7309 9.53379C22.7309 8.96691 22.5178 8.7514 21.9495 8.7514C21.0024 8.7514 20.0553 8.7514 19.1082 8.7514Z" fill="black"/>
<path d="M12.4074 2.50648C14.9741 2.50648 17.536 2.50648 20.1027 2.50648C21.476 2.50648 22.4942 3.3404 22.7025 4.68029C22.7641 5.08319 22.7404 5.50484 22.7215 5.91711C22.7025 6.23569 22.4042 6.45588 22.0774 6.44651C21.7554 6.43714 21.5139 6.21695 21.4902 5.889C21.4713 5.65475 21.4808 5.42051 21.476 5.18626C21.4713 4.24459 20.9788 3.75267 20.0317 3.75267C14.9172 3.75267 9.80278 3.75267 4.68834 3.75267C4.57942 3.75267 4.46576 3.75267 4.35685 3.7433C4.02535 3.70582 3.78857 3.44346 3.78857 3.12489C3.78857 2.80163 4.04903 2.5299 4.38052 2.50648C4.45156 2.50179 4.52259 2.50648 4.59363 2.50648C7.1982 2.50648 9.80278 2.50648 12.4074 2.50648Z" fill="black"/>
<path d="M16.4135 12.1761C15.8926 12.1761 15.4475 11.7404 15.4522 11.2391C15.4617 10.7519 15.9068 10.3209 16.404 10.3162C16.9202 10.3115 17.3654 10.7425 17.3701 11.2485C17.3748 11.7545 16.9392 12.1761 16.4135 12.1761Z" fill="black"/>
</g>
<defs>
<clipPath id="clip0_8_691">
<rect width="24" height="20" fill="white"/>
</clipPath>
</defs>
</svg>
